<?xml version="1.0" encoding="utf-8"?>
<!-- Generator: Adobe Illustrator 24.0.3, SVG Export Plug-In . SVG Version: 6.00 Build 0)  -->
<svg version="1.1" id="Layer_1" xmlns="http://www.w3.org/2000/svg" xmlns:xlink="http://www.w3.org/1999/xlink" x="0px" y="0px"
	 viewBox="0 0 234 111" style="enable-background:new 0 0 234 111;" xml:space="preserve">
<style type="text/css">
	.st0{fill:white;stroke:#000000;stroke-width:0.25;stroke-miterlimit:10;}
</style>
<g>
	<g>
		<path class="st0" d="M42.25,28.8c0-4.71,2.48-7.39,7.02-7.39c4.54,0,7.02,2.69,7.02,7.39v15.29c0,4.71-2.48,7.39-7.02,7.39
			c-4.54,0-7.02-2.69-7.02-7.39V28.8z M46.87,44.39c0,2.1,0.92,2.9,2.39,2.9s2.39-0.8,2.39-2.9V28.51c0-2.1-0.92-2.9-2.39-2.9
			s-2.39,0.8-2.39,2.9V44.39z"/>
		<path class="st0" d="M61.36,21.75h4.62v25.2h7.6v4.2H61.36V21.75z"/>
		<path class="st0" d="M92.65,51.15h-4.66l-0.8-5.33h-5.67l-0.8,5.33h-4.24l4.71-29.41h6.76L92.65,51.15z M82.1,41.83h4.45
			l-2.18-14.87h-0.08L82.1,41.83z"/>
		<path class="st0" d="M110.08,34.81h5.96v4.2h-5.96v12.14h-4.62V21.75h12.22v4.2h-7.6V34.81z"/>
		<path class="st0" d="M131.62,51.15c-0.25-0.76-0.42-1.22-0.42-3.61v-4.62c0-2.73-0.92-3.74-3.02-3.74h-1.6v11.97h-4.62V21.75h6.97
			c4.79,0,6.85,2.23,6.85,6.76v2.31c0,3.03-0.97,4.96-3.02,5.92v0.08c2.31,0.97,3.07,3.15,3.07,6.22v4.54c0,1.43,0.04,2.48,0.5,3.57
			H131.62z M126.58,25.95v9.03h1.81c1.72,0,2.77-0.76,2.77-3.11v-2.9c0-2.1-0.71-3.02-2.35-3.02H126.58z"/>
		<path class="st0" d="M140.52,28.8c0-4.71,2.48-7.39,7.02-7.39c4.54,0,7.02,2.69,7.02,7.39v15.29c0,4.71-2.48,7.39-7.02,7.39
			c-4.54,0-7.02-2.69-7.02-7.39V28.8z M145.15,44.39c0,2.1,0.92,2.9,2.39,2.9s2.39-0.8,2.39-2.9V28.51c0-2.1-0.92-2.9-2.39-2.9
			s-2.39,0.8-2.39,2.9V44.39z"/>
		<path class="st0" d="M165.81,21.41c4.49,0,6.81,2.69,6.81,7.39v0.92h-4.37v-1.22c0-2.1-0.84-2.9-2.31-2.9s-2.31,0.8-2.31,2.9
			c0,2.14,0.92,3.74,3.95,6.38c3.86,3.4,5.08,5.84,5.08,9.2c0,4.71-2.35,7.39-6.89,7.39c-4.54,0-6.89-2.69-6.89-7.39v-1.81h4.37v2.1
			c0,2.1,0.92,2.86,2.39,2.86s2.39-0.76,2.39-2.86c0-2.14-0.92-3.74-3.95-6.38c-3.86-3.4-5.08-5.84-5.08-9.2
			C159,24.1,161.31,21.41,165.81,21.41z"/>
		<path class="st0" d="M176.01,21.75h14.28v4.2h-4.83v25.2h-4.62v-25.2h-4.83V21.75z"/>
	</g>
	<g>
		<path class="st0" d="M44,62.83v2.41h3.37v1.43H44v3.71h-1.72v-9.05h5.94v1.51H44z"/>
		<path class="st0" d="M53.58,69.49c-0.68-0.69-1.03-1.65-1.03-2.86v-5.3h1.72v5.26c0,0.83,0.19,1.45,0.56,1.84s0.9,0.59,1.59,0.59
			c0.69,0,1.22-0.2,1.59-0.6c0.37-0.4,0.55-1.01,0.55-1.83v-5.26h1.72v5.3c0,1.21-0.34,2.17-1.03,2.86s-1.63,1.04-2.83,1.04
			S54.26,70.18,53.58,69.49z"/>
		<path class="st0" d="M65.41,61.32h1.72v7.54h3.81v1.51h-5.52V61.32z"/>
		<path class="st0" d="M75.55,61.32h1.72v7.54h3.81v1.51h-5.52V61.32z"/>
		<path class="st0" d="M93.19,70.33c-0.55-0.13-1.06-0.31-1.55-0.53v-1.66c1.13,0.61,2.13,0.91,3.02,0.91c0.44,0,0.8-0.09,1.07-0.29
			c0.27-0.19,0.41-0.46,0.41-0.81c0-0.24-0.08-0.45-0.23-0.62c-0.15-0.17-0.34-0.31-0.57-0.42c-0.23-0.11-0.55-0.24-0.96-0.4
			c-0.56-0.21-1.02-0.41-1.38-0.6c-0.36-0.19-0.66-0.46-0.91-0.81c-0.25-0.35-0.38-0.8-0.38-1.36c0-0.81,0.28-1.45,0.85-1.9
			c0.56-0.46,1.33-0.68,2.31-0.68c0.46,0,0.91,0.05,1.35,0.15s0.85,0.25,1.22,0.44v1.62c-0.88-0.49-1.72-0.73-2.53-0.73
			c-0.45,0-0.8,0.08-1.06,0.24c-0.26,0.16-0.38,0.39-0.38,0.68s0.13,0.53,0.4,0.7c0.26,0.17,0.67,0.35,1.23,0.55
			c0.58,0.22,1.06,0.42,1.43,0.62s0.7,0.49,0.97,0.86s0.42,0.86,0.44,1.46c0,0.86-0.29,1.53-0.87,2.02
			c-0.58,0.49-1.36,0.73-2.33,0.73C94.25,70.53,93.74,70.46,93.19,70.33z"/>
		<path class="st0" d="M104.8,62.9h-2.57v-1.57h6.86v1.57h-2.57v7.47h-1.72V62.9z"/>
		<path class="st0" d="M118.59,68.32h-3.86l-0.75,2.05h-1.72l3.43-9.05h2l3.43,9.05h-1.78L118.59,68.32z M118.06,66.86l-1.39-3.85
			l-1.4,3.85H118.06z"/>
		<path class="st0" d="M126.81,69.96c-0.71-0.38-1.26-0.92-1.64-1.63c-0.38-0.71-0.57-1.53-0.57-2.48c0-0.94,0.19-1.77,0.57-2.48
			c0.38-0.71,0.94-1.25,1.66-1.63c0.73-0.38,1.6-0.57,2.61-0.57c0.42,0,0.84,0.04,1.25,0.12c0.41,0.08,0.78,0.21,1.11,0.37v1.59
			h-0.05c-0.33-0.19-0.69-0.33-1.07-0.43c-0.39-0.1-0.75-0.14-1.1-0.14c-0.99,0-1.77,0.27-2.33,0.82c-0.57,0.55-0.85,1.33-0.85,2.35
			c0,1.01,0.28,1.79,0.83,2.34c0.55,0.55,1.31,0.82,2.27,0.82c0.37,0,0.75-0.06,1.14-0.17c0.39-0.12,0.76-0.28,1.11-0.5h0.05v1.6
			c-0.69,0.4-1.51,0.6-2.44,0.6C128.38,70.53,127.53,70.34,126.81,69.96z"/>
		<path class="st0" d="M139.59,66.63l-0.99,1.14v2.6h-1.72v-9.05h1.72v4.11l3.47-4.11h2.11l-3.42,3.95l3.63,5.1h-2.12L139.59,66.63z
			"/>
	</g>
	<g>
		<path class="st0" d="M54.61,78.32l-2.85,9.05h-2l-1.92-6.5l-1.92,6.5h-2l-2.85-9.05h1.86l2.02,6.96l1.99-6.96h1.89l1.99,6.96
			l2.02-6.96H54.61z"/>
		<path class="st0" d="M60.38,79.83v2.26h3.9v1.42h-3.9v2.35h4.19v1.51h-5.9v-9.05h5.9v1.51H60.38z"/>
		<path class="st0" d="M76.06,83.51c0.24,0.36,0.36,0.81,0.36,1.33c0,0.82-0.3,1.45-0.9,1.88c-0.6,0.43-1.46,0.65-2.6,0.65h-3.34
			v-9.05h3.5c0.98,0,1.73,0.21,2.26,0.62c0.53,0.41,0.79,1,0.79,1.76c0,0.91-0.38,1.56-1.14,1.96
			C75.46,82.87,75.81,83.15,76.06,83.51z M71.3,79.83v2.16h1.62c0.47,0,0.82-0.1,1.05-0.29s0.35-0.47,0.35-0.83
			c0-0.4-0.1-0.67-0.31-0.82c-0.2-0.15-0.57-0.22-1.09-0.22H71.3z M74.23,85.58c0.26-0.18,0.38-0.48,0.38-0.92
			c0-0.41-0.14-0.71-0.41-0.9c-0.27-0.19-0.7-0.29-1.27-0.29H71.3v2.37h1.62C73.54,85.85,73.97,85.76,74.23,85.58z"/>
		<path class="st0" d="M93.24,78.88c0.67,0.37,1.17,0.89,1.52,1.57c0.35,0.68,0.52,1.48,0.52,2.4c0,0.92-0.17,1.72-0.52,2.4
			c-0.35,0.68-0.85,1.21-1.52,1.57c-0.67,0.37-1.46,0.55-2.39,0.55h-3.34v-9.05h3.34C91.78,78.32,92.57,78.51,93.24,78.88z
			 M92.78,85.08c0.46-0.51,0.7-1.26,0.7-2.24c0-0.98-0.23-1.72-0.7-2.24c-0.46-0.51-1.11-0.77-1.93-0.77h-1.62v6.01h1.62
			C91.67,85.85,92.32,85.6,92.78,85.08z"/>
		<path class="st0" d="M101.95,79.83v2.26h3.9v1.42h-3.9v2.35h4.19v1.51h-5.9v-9.05h5.9v1.51H101.95z"/>
		<path class="st0" d="M118.66,78.32l-3.3,9.05h-2l-3.3-9.05h1.86l2.48,7.23l2.47-7.23H118.66z"/>
		<path class="st0" d="M124.55,79.83v2.26h3.9v1.42h-3.9v2.35h4.19v1.51h-5.9v-9.05h5.9v1.51H124.55z"/>
		<path class="st0" d="M133.74,78.32h1.72v7.54h3.81v1.51h-5.52V78.32z"/>
		<path class="st0" d="M144.83,86.96c-0.67-0.38-1.17-0.92-1.52-1.62s-0.52-1.53-0.52-2.48c0-0.95,0.17-1.78,0.52-2.48
			s0.85-1.24,1.52-1.62c0.67-0.38,1.46-0.57,2.39-0.57s1.72,0.19,2.39,0.57c0.67,0.38,1.17,0.92,1.52,1.62s0.52,1.53,0.52,2.48
			c0,0.95-0.17,1.78-0.52,2.48s-0.85,1.24-1.52,1.62c-0.67,0.38-1.46,0.57-2.39,0.57S145.49,87.34,144.83,86.96z M149.14,85.14
			c0.47-0.53,0.7-1.3,0.7-2.29c0-1-0.23-1.76-0.7-2.29c-0.47-0.53-1.11-0.8-1.92-0.8s-1.46,0.27-1.92,0.8
			c-0.47,0.53-0.7,1.3-0.7,2.29c0,1,0.23,1.76,0.7,2.29c0.47,0.53,1.11,0.8,1.92,0.8S148.67,85.68,149.14,85.14z"/>
		<path class="st0" d="M156.62,78.32h2.99c1.25,0,2.18,0.25,2.79,0.76c0.62,0.51,0.92,1.24,0.92,2.2c0,0.97-0.3,1.72-0.91,2.26
			c-0.61,0.54-1.49,0.81-2.65,0.81h-1.43v3.02h-1.72V78.32z M159.62,82.86c0.65,0,1.13-0.12,1.44-0.35
			c0.31-0.23,0.46-0.63,0.46-1.18c0-0.54-0.15-0.92-0.46-1.14c-0.3-0.22-0.79-0.34-1.46-0.34h-1.27v3.02H159.62z"/>
		<path class="st0" d="M169.51,79.83v2.26h3.9v1.42h-3.9v2.35h4.19v1.51h-5.9v-9.05h5.9v1.51H169.51z"/>
		<path class="st0" d="M183.88,87.37l-1.85-3.45h-1.61v3.45h-1.72v-9.05h3.26c1.17,0,2.05,0.23,2.63,0.7
			c0.58,0.47,0.87,1.15,0.87,2.04c0,0.63-0.14,1.17-0.43,1.61c-0.29,0.44-0.71,0.77-1.27,0.99l2,3.71H183.88z M180.42,82.42h1.56
			c0.57,0,0.99-0.1,1.27-0.3s0.41-0.54,0.41-1.01c0-0.46-0.13-0.78-0.4-0.98c-0.27-0.19-0.7-0.29-1.29-0.29h-1.55V82.42z"/>
	</g>
</g>
<g>
	<g>
		<path class="st0" d="M18.44,48.62c-1.2,2.5-2.87,4.32-5,5.45c2.13,1.07,3.8,2.87,5,5.4c1.2,2.53,1.8,5.4,1.8,8.6v14
			c0,2.93,0.63,5.45,1.9,7.55c1.27,2.1,3.03,3.15,5.3,3.15h5.4v7.6h-6.3c-2.87,0-5.42-0.83-7.65-2.5c-2.23-1.67-3.95-3.87-5.15-6.6
			c-1.2-2.73-1.8-5.7-1.8-8.9v-14.8c0-3.4-0.83-5.97-2.5-7.7c-1.67-1.73-4.13-2.6-7.4-2.6v-6.5c3.27,0,5.73-0.87,7.4-2.6
			c1.67-1.73,2.5-4.3,2.5-7.7v-14.9c0-3.2,0.62-6.17,1.85-8.9c1.23-2.73,2.97-4.93,5.2-6.6c2.23-1.67,4.78-2.5,7.65-2.5h6.2v7.6
			h-5.4c-2.27,0-4.03,1.05-5.3,3.15c-1.27,2.1-1.9,4.62-1.9,7.55v14.1C20.24,43.24,19.64,46.12,18.44,48.62z"/>
	</g>
</g>
<g>
	<g>
		<path class="st0" d="M200.28,92.77h5.4c2.27,0,4.03-1.05,5.3-3.15c1.27-2.1,1.9-4.62,1.9-7.55v-14c0-3.2,0.6-6.07,1.8-8.6
			c1.2-2.53,2.87-4.33,5-5.4c-2.13-1.13-3.8-2.95-5-5.45c-1.2-2.5-1.8-5.38-1.8-8.65v-14.1c0-2.93-0.63-5.45-1.9-7.55
			c-1.27-2.1-3.03-3.15-5.3-3.15h-5.4v-7.6h6.2c2.87,0,5.42,0.83,7.65,2.5c2.23,1.67,3.97,3.87,5.2,6.6c1.23,2.73,1.85,5.7,1.85,8.9
			v14.9c0,3.4,0.83,5.97,2.5,7.7c1.67,1.73,4.13,2.6,7.4,2.6v6.5c-3.27,0-5.73,0.87-7.4,2.6c-1.67,1.73-2.5,4.3-2.5,7.7v14.8
			c0,3.2-0.6,6.17-1.8,8.9s-2.92,4.93-5.15,6.6c-2.23,1.67-4.78,2.5-7.65,2.5h-6.3V92.77z"/>
	</g>
</g>
</svg>
